# xmcd CD database file
#
# Track frame offsets:
#	150
#	31883
#	56965
#	74053
#	100105
#	129969
#	170625
#	207831
#	232599
#
# Disc length: 3360 seconds
#
# Revision: 0
# Processed by: cddbd v1.5.2PL0 Copyright (c) Steve Scherf et al.
# Submitted via: jetAudio 7
#
DISCID=780d1e09
DTITLE=範宗沛  - 水色
DYEAR=2004
DGENRE=Newage
TTITLE0=奇遇
TTITLE1=水色
TTITLE2=十三月
TTITLE3=擺渡人之歌
TTITLE4=煙波弄
TTITLE5=錯過
TTITLE6=青石的街道向晚
TTITLE7=靜水深流
TTITLE8=告別 
EXTD=YEAR: 2004
EXTT0=
EXTT1=
EXTT2=
EXTT3=
EXTT4=
EXTT5=
EXTT6=
EXTT7=
EXTT8=
PLAYORDER=
